<svg width="32" height="32" viewBox="0 0 32 32" fill="none" xmlns="http://www.w3.org/2000/svg">
<path d="M8.66536 3.29529C4.28149 5.83122 1.33203 10.5711 1.33203 15.9998C1.33203 21.4286 4.28149 26.1684 8.66536 28.7043M23.332 3.29529C27.7159 5.83122 30.6654 10.5711 30.6654 15.9998C30.6654 21.4286 27.7159 26.1684 23.332 28.7043" stroke="white" stroke-linecap="round"/>
<path d="M15.9369 23.2L15.6502 23.6097C15.8223 23.7302 16.0515 23.7302 16.2236 23.6097L15.9369 23.2ZM19.8532 10.4222L19.4996 10.7758L19.4996 10.7758L19.8532 10.4222ZM12.0206 10.4222L11.6671 10.0687H11.6671L12.0206 10.4222ZM20.9754 14.3385C20.9754 16.6508 19.6848 18.751 18.3288 20.3104C17.6569 21.0831 16.9838 21.7059 16.4785 22.1354C16.2262 22.3499 16.0166 22.5154 15.8713 22.6265C15.7986 22.682 15.7421 22.7239 15.7043 22.7514C15.6854 22.7652 15.6712 22.7754 15.6621 22.782C15.6575 22.7852 15.6542 22.7876 15.6522 22.789C15.6512 22.7897 15.6506 22.7902 15.6502 22.7904C15.65 22.7905 15.6499 22.7906 15.6499 22.7906C15.6499 22.7906 15.65 22.7906 15.65 22.7906C15.6501 22.7905 15.6502 22.7904 15.9369 23.2C16.2236 23.6097 16.2238 23.6096 16.2239 23.6095C16.224 23.6094 16.2242 23.6093 16.2244 23.6091C16.2247 23.6089 16.2251 23.6086 16.2256 23.6083C16.2266 23.6076 16.2279 23.6066 16.2296 23.6055C16.2329 23.6031 16.2376 23.5998 16.2435 23.5956C16.2553 23.5871 16.2722 23.575 16.2939 23.5591C16.3373 23.5275 16.3997 23.4812 16.4785 23.421C16.636 23.3006 16.8592 23.1243 17.1261 22.8974C17.6593 22.4442 18.3707 21.7862 19.0834 20.9666C20.4967 19.3414 21.9754 17.0108 21.9754 14.3385H20.9754ZM19.4996 10.7758C20.4445 11.7207 20.9754 13.0022 20.9754 14.3385H21.9754C21.9754 12.737 21.3392 11.2011 20.2067 10.0687L19.4996 10.7758ZM15.9369 9.30005C17.2732 9.30005 18.5547 9.83089 19.4996 10.7758L20.2067 10.0687C19.0743 8.93624 17.5384 8.30005 15.9369 8.30005V9.30005ZM12.3742 10.7758C13.3191 9.83089 14.6006 9.30005 15.9369 9.30005V8.30005C14.3354 8.30005 12.7995 8.93624 11.6671 10.0687L12.3742 10.7758ZM10.8984 14.3385C10.8984 13.0022 11.4293 11.7207 12.3742 10.7758L11.6671 10.0687C10.5346 11.2011 9.89844 12.737 9.89844 14.3385H10.8984ZM15.9369 23.2C16.2236 22.7904 16.2237 22.7905 16.2238 22.7906C16.2238 22.7906 16.2239 22.7906 16.2239 22.7906C16.2239 22.7906 16.2238 22.7905 16.2236 22.7904C16.2232 22.7902 16.2226 22.7897 16.2216 22.789C16.2196 22.7876 16.2163 22.7852 16.2117 22.782C16.2026 22.7754 16.1884 22.7652 16.1695 22.7514C16.1317 22.7239 16.0752 22.682 16.0025 22.6265C15.8572 22.5154 15.6476 22.3499 15.3953 22.1354C14.89 21.7059 14.2169 21.0831 13.545 20.3104C12.189 18.751 10.8984 16.6508 10.8984 14.3385H9.89844C9.89844 17.0108 11.3771 19.3414 12.7904 20.9666C13.5031 21.7862 14.2145 22.4442 14.7477 22.8974C15.0146 23.1243 15.2378 23.3006 15.3953 23.421C15.4741 23.4812 15.5365 23.5275 15.5799 23.5591C15.6016 23.575 15.6185 23.5871 15.6303 23.5956C15.6362 23.5998 15.6409 23.6031 15.6442 23.6055C15.6459 23.6066 15.6472 23.6076 15.6482 23.6083C15.6487 23.6086 15.6491 23.6089 15.6494 23.6091C15.6496 23.6093 15.6498 23.6094 15.6499 23.6095C15.65 23.6096 15.6502 23.6097 15.9369 23.2ZM15.9373 17.0539C17.4369 17.0539 18.6526 15.8381 18.6526 14.3385H17.6526C17.6526 15.2859 16.8846 16.0539 15.9373 16.0539V17.0539ZM13.2219 14.3385C13.2219 15.8381 14.4376 17.0539 15.9373 17.0539V16.0539C14.9899 16.0539 14.2219 15.2859 14.2219 14.3385H13.2219ZM15.9373 11.6231C14.4376 11.6231 13.2219 12.8388 13.2219 14.3385H14.2219C14.2219 13.3911 14.9899 12.6231 15.9373 12.6231V11.6231ZM18.6526 14.3385C18.6526 12.8388 17.4369 11.6231 15.9373 11.6231V12.6231C16.8846 12.6231 17.6526 13.3911 17.6526 14.3385H18.6526Z" fill="white"/>
</svg>
