<svg width="32" height="32" viewBox="0 0 32 32" fill="none" xmlns="http://www.w3.org/2000/svg">
<path d="M8.33333 3C3.94946 5.53594 1 10.2758 1 15.7045C1 21.1333 3.94946 25.8731 8.33333 28.4091M23 3C27.3839 5.53594 30.3333 10.2758 30.3333 15.7045C30.3333 21.1333 27.3839 25.8731 23 28.4091" stroke="white" stroke-linecap="round"/>
<path d="M20.3408 21.9464C20.4518 21.9464 20.5384 21.9811 20.6008 22.0504C20.6632 22.1128 20.6944 22.196 20.6944 22.3V22.8824H11.1992V22.5288C11.1992 22.4525 11.2166 22.3763 11.2512 22.3C11.2928 22.2168 11.3448 22.1475 11.4072 22.092L16.4304 17.0064C16.8464 16.5835 17.2312 16.1744 17.5848 15.7792C17.9384 15.384 18.2435 14.9853 18.5 14.5832C18.7635 14.1811 18.968 13.7685 19.1136 13.3456C19.2592 12.9227 19.332 12.472 19.332 11.9936C19.332 11.4528 19.2419 10.9848 19.0616 10.5896C18.8814 10.1875 18.6422 9.85813 18.344 9.6016C18.0459 9.34507 17.6992 9.1544 17.304 9.0296C16.9088 8.9048 16.4998 8.8424 16.0768 8.8424C15.6123 8.8424 15.1824 8.9152 14.7872 9.0608C14.399 9.19947 14.0523 9.39707 13.7472 9.6536C13.4491 9.9032 13.1995 10.2048 12.9984 10.5584C12.8043 10.9051 12.6691 11.2864 12.5928 11.7024C12.5443 11.8549 12.4784 11.9555 12.3952 12.004C12.319 12.0525 12.2115 12.0699 12.0728 12.056L11.5632 11.9728C11.6534 11.3419 11.8267 10.7803 12.0832 10.288C12.3398 9.79573 12.6656 9.37973 13.0608 9.04C13.456 8.70027 13.9136 8.44373 14.4336 8.2704C14.9536 8.09013 15.5152 8 16.1184 8C16.68 8 17.2139 8.0832 17.72 8.2496C18.2331 8.40907 18.6838 8.6552 19.072 8.988C19.4672 9.31387 19.7792 9.7264 20.008 10.2256C20.2368 10.7179 20.3512 11.2968 20.3512 11.9624C20.3512 12.5171 20.2646 13.0336 20.0912 13.512C19.9248 13.9835 19.696 14.4376 19.4048 14.8744C19.1136 15.3112 18.7739 15.7376 18.3856 16.1536C18.0043 16.5627 17.6022 16.9821 17.1792 17.412L12.572 22.1128C12.7939 22.0573 13.0227 22.0157 13.2584 21.988C13.5011 21.9603 13.7438 21.9464 13.9864 21.9464H20.3408Z" fill="white"/>
</svg>
