<svg width="32" height="32" viewBox="0 0 32 32" fill="none" xmlns="http://www.w3.org/2000/svg">
<path d="M8.66536 3.29529C4.28149 5.83122 1.33203 10.5711 1.33203 15.9998C1.33203 21.4286 4.28149 26.1684 8.66536 28.7043M23.332 3.29529C27.7159 5.83122 30.6654 10.5711 30.6654 15.9998C30.6654 21.4286 27.7159 26.1684 23.332 28.7043" stroke="white" stroke-linecap="round"/>
<path d="M19.9699 22.4304V23.2H12.3779V22.4304H15.7579V10.4912C15.7579 10.2555 15.7683 10.0059 15.7891 9.74243L12.5443 12.6232C12.4472 12.7064 12.3501 12.7376 12.2531 12.7168C12.156 12.696 12.0797 12.6544 12.0243 12.592L11.7227 12.176L15.9763 8.42163H16.7563V22.4304H19.9699Z" fill="white"/>
</svg>
